HIERARCHY
ROOT Hips
{
  OFFSET 40.9192 92.6879 18.85
  CHANNELS 6 Xposition Yposition Zposition Zrotation Xrotation Yrotation
  JOINT LeftUpLeg
  {
    OFFSET 8.64259 1.95398 -2.38835
    CHANNELS 3 Zrotation Xrotation Yrotation
    JOINT LeftLeg
    {
      OFFSET 43.7702 0 0
      CHANNELS 3 Zrotation Xrotation Yrotation
      JOINT LeftFoot
      {
        OFFSET 40.6238 0 0
        CHANNELS 3 Zrotation Xrotation Yrotation
        JOINT LeftToeBase
        {
          OFFSET 12.7242 0 0
          CHANNELS 3 Zrotation Xrotation Yrotation
          End Site
          {
            OFFSET 0 0 0
          }
        }
      }
    }
  }
  JOINT RightUpLeg
  {
    OFFSET -8.2249 1.95398 -2.59336
    CHANNELS 3 Zrotation Xrotation Yrotation
    JOINT RightLeg
    {
      OFFSET 43.5653 0 0
      CHANNELS 3 Zrotation Xrotation Yrotation
      JOINT RightFoot
      {
        OFFSET 40.6238 0 0
        CHANNELS 3 Zrotation Xrotation Yrotation
        JOINT RightToeBase
        {
          OFFSET 12.7242 0 0
          CHANNELS 3 Zrotation Xrotation Yrotation
          End Site
          {
            OFFSET 0 0 0
          }
        }
      }
    }
  }
  JOINT Spine
  {
    OFFSET 0.165834 0.87714 6.61349
    CHANNELS 3 Zrotation Xrotation Yrotation
    JOINT Spine1
    {
      OFFSET 7.38963 1.71661e-005 0
      CHANNELS 3 Zrotation Xrotation Yrotation
      JOINT Spine2
      {
        OFFSET 11.9445 1.14441e-005 0
        CHANNELS 3 Zrotation Xrotation Yrotation
        JOINT Spine3
        {
          OFFSET 14.7254 4.19617e-005 0
          CHANNELS 3 Zrotation Xrotation Yrotation
          JOINT Spine4
          {
            OFFSET 10.9679 0 0
            CHANNELS 3 Zrotation Xrotation Yrotation
            JOINT RightShoulder
            {
              OFFSET 2.46616 -1.6653 3.69651
              CHANNELS 3 Zrotation Xrotation Yrotation
              JOINT RightArm
              {
                OFFSET 13.0012 0 0
                CHANNELS 3 Zrotation Xrotation Yrotation
                JOINT RightForeArm
                {
                  OFFSET 28.7848 1.52588e-005 0
                  CHANNELS 3 Zrotation Xrotation Yrotation
                  JOINT RightHand
                  {
                    OFFSET 26.5688 1.52588e-005 0
                    CHANNELS 3 Zrotation Xrotation Yrotation
                    End Site
                    {
                      OFFSET 0 0 0
                    }
                  }
                }
              }
            }
            JOINT LeftShoulder
            {
              OFFSET 2.38034 -1.29275 -3.7523
              CHANNELS 3 Zrotation Xrotation Yrotation
              JOINT LeftArm
              {
                OFFSET 16.3182 6.10351e-005 0
                CHANNELS 3 Zrotation Xrotation Yrotation
                JOINT LeftForeArm
                {
                  OFFSET 27.0901 0 0
                  CHANNELS 3 Zrotation Xrotation Yrotation
                  JOINT LeftHand
                  {
                    OFFSET 24.5451 1.52588e-005 0
                    CHANNELS 3 Zrotation Xrotation Yrotation
                    End Site
                    {
                      OFFSET 0 0 0
                    }
                  }
                }
              }
            }
            JOINT Neck
            {
              OFFSET 5.0226 -0.0266342 0
              CHANNELS 3 Zrotation Xrotation Yrotation
              JOINT Head
              {
                OFFSET 6.69363 2.86102e-005 0
                CHANNELS 3 Zrotation Xrotation Yrotation
                End Site
                {
                  OFFSET 0 0 0
                }
              }
            }
          }
        }
      }
    }
  }
}
MOTION
Frames:	7
Frame Time:	0.0416667
-31.2288 11.2972 10.6767 3.58198 -5.51505 77.7106 -173.052 7.12183 90.2839 -23.3759 29.9112 -1.89544 55.8524 -2.25392 -0.189223 70.611 35.4955 6.443 178.88 8.57584 89.8525 -31.1424 -21.1805 -6.69523 59.9476 -1.00634 -0.514617 52.9866 2.69576 9.91263 2.11094 6.82474 -92.3226 13.2812 3.06876 -5.03335 1.60372 2.84455 -5.16316 -20.9094 4.43853 -3.88035 -0.896802 4.43854 -3.88036 102.259 -24.7261 -81.8814 -52.922 47.3356 75.9881 -16.987 -7.99346 -141.199 -41.7071 1.6411 -6.27335 -161.691 -54.6307 -7.3081 107.365 -28.4123 104.19 13.9519 18.6061 -153.988 45.7826 4.44394 5.75598 26.4914 -18.4016 62.4242 -11.0494 -36.7642 -52.9653 
-31.2313 11.2876 10.6932 3.61962 -5.44844 77.8207 -172.997 7.21517 90.4442 -23.5232 29.7761 -1.89692 55.8381 -2.31631 -0.552943 71.1546 35.7175 5.95506 178.801 8.46817 89.8971 -30.8397 -21.2084 -6.53195 59.7547 -0.938388 -0.47568 52.4839 2.7492 10.7586 2.11435 6.82252 -92.3291 13.2809 3.07212 -5.04657 1.60327 2.84732 -5.17648 -20.9095 4.4457 -3.89198 -0.896858 4.4457 -3.89196 102.241 -24.9078 -81.9208 -53.7259 47.3623 76.2885 -17.5863 -7.97661 -140.834 -41.9939 1.78909 -6.56856 -161.518 -54.5699 -7.17754 107.124 -28.3607 104.01 13.9322 18.5062 -153.941 45.1081 4.25849 5.50353 26.8259 -18.6553 62.6225 -12.1699 -36.7596 -53.2217 
-31.2554 11.3041 10.7117 3.6837 -5.418 77.7789 -173.038 7.10672 90.42 -23.397 29.8047 -1.85822 55.5555 -2.51388 -0.502155 71.2451 35.9966 6.36239 178.704 8.49624 89.8304 -30.9496 -21.0782 -6.5133 59.4277 -0.790027 -0.375906 53.3832 2.96376 11.2777 2.11448 6.82465 -92.3215 13.2738 3.0763 -5.03248 1.59619 2.85214 -5.16262 -20.917 4.44547 -3.87727 -0.904389 4.44548 -3.87725 102.063 -24.7607 -82.3214 -51.0956 46.4138 74.1386 -18.4496 -8.09865 -140.268 -46.1383 1.61802 -5.67183 -161.099 -54.5614 -6.77474 105.716 -28.7616 103.291 14.122 17.8874 -153.853 46.6407 4.1761 4.97141 27.2094 -18.1586 62.9329 -15.0253 -35.4464 -53.4825 
-31.2853 11.3271 10.7139 3.83411 -5.36659 77.819 -173.06 7.07937 90.4716 -23.5633 29.6231 -1.7915 55.5594 -2.5314 -0.79947 71.5811 36.2548 6.30826 178.825 8.34407 89.8984 -30.9776 -21.0472 -6.57888 59.5658 -0.868608 -0.428983 52.8786 2.8637 11.1252 2.10837 6.83202 -92.3336 13.2589 3.05868 -5.05365 1.5812 2.8336 -5.18298 -20.931 4.43501 -3.90277 -0.91841 4.43501 -3.90279 102.079 -24.4221 -82.2877 -50.8594 46.2121 74.1437 -17.6637 -8.30932 -140.214 -42.7357 0.925567 -4.44775 -161.224 -54.5411 -6.90886 106.263 -28.4348 103.497 13.885 18.4593 -153.9 46.2066 4.23163 5.18897 27.8599 -18.3788 63.0304 -16.8245 -35.2551 -53.6001 
-31.2792 11.308 10.726 3.78864 -5.3226 77.8656 -173.062 7.16459 90.5414 -23.6277 29.6121 -1.76006 55.6641 -2.47982 -1.19927 72.7219 36.8686 5.61136 178.861 8.40583 89.9628 -30.9775 -21.115 -6.57805 59.5283 -0.850048 -0.417177 52.6087 2.73014 10.5049 2.10776 6.80609 -92.3326 13.3107 3.0566 -5.05419 1.63305 2.83148 -5.18344 -20.8792 4.4332 -3.90392 -0.866493 4.43318 -3.90393 102.538 -24.1507 -81.2508 -49.3301 46.3973 73.8103 -18.125 -7.72777 -141.146 -46.1482 1.78398 -5.97869 -161.233 -54.4707 -6.96162 106.362 -28.2513 103.406 14.2018 17.9497 -153.843 46.4253 4.1538 4.97019 27.0633 -19.8617 62.7791 -17.2417 -35.8847 -53.4865 
-31.3064 11.3098 10.7478 3.75635 -5.3142 77.7964 -173.138 7.21518 90.4475 -23.7992 29.7192 -1.68726 56.179 -2.03395 -0.844581 71.5982 37.469 8.65978 178.85 8.52464 89.9284 -31.1687 -21.057 -6.66217 59.396 -0.776094 -0.363383 53.408 2.85463 10.5539 2.10852 6.80096 -92.3254 13.3211 3.0613 -5.04085 1.64343 2.83679 -5.17031 -20.8692 4.43367 -3.88979 -0.85654 4.43366 -3.88977 102.945 -24.6309 -80.3068 -49.2361 46.8955 73.45 -18.5131 -7.33277 -141.699 -45.1132 1.57994 -5.5194 -161.115 -54.5386 -6.80482 105.741 -28.6065 103.201 13.9674 18.0052 -153.864 45.9975 3.98496 4.68942 26.5129 -20.5615 62.3062 -17.1648 -36.0862 -53.281 
-31.2874 11.3265 10.7509 3.82595 -5.38935 77.8151 -173.094 7.24857 90.4925 -24.0684 29.751 -1.72458 55.9074 -2.26212 -0.729892 72.2563 36.9919 6.61062 178.95 8.3549 89.9379 -30.9789 -21.0992 -6.69535 59.4243 -0.82358 -0.398118 53.3 2.9374 11.1982 2.11006 6.81427 -92.3291 13.2945 3.06326 -5.04724 1.61683 2.83845 -5.17679 -20.8957 4.43744 -3.89529 -0.88304 4.43747 -3.89529 104.486 -20.9304 -76.5723 -33.1144 47.6588 62.3079 -21.1881 -1.29333 -142.033 -44.8733 0.97651 -3.83471 -161.537 -54.5064 -7.2354 107.048 -28.3336 103.995 14.0031 18.36 -153.923 46.0381 4.02892 4.77797 26.2668 -20.9676 63.1304 -18.4704 -35.9762 -54.5035 
